#!OML:ASF H:\Martial Arts Walks\Project 1\Capture day 1\Session 1\male.ASF
:FULLY-SPECIFIED
:DEGREES
1719
root -2.69295 13.9908 25.328 13.4737 -25.1999 -16.7499
lowerback 10.0114 3.91094 7.1112
upperback -2.5845 6.46642 4.02317
thorax -8.07638 2.89479 -0.763174
lowerneck -2.7208 0.515594 -2.66204
upperneck 5.04126 0.581535 4.39567
head 2.04245 0.3461 1.87715
rclavicle -2.75814e-014 -9.93923e-015
rhumerus -40.1582 13.5567 -77.5269
rradius 43.5061
rwrist 16.9062
rhand -5.98929 -42.7131
rfingers 7.12502
rthumb 19.8426 -71.7202
lclavicle -2.75814e-014 -9.93923e-015
lhumerus -25.4143 0.580959 80.6972
lradius 25.4959
lwrist -18.1307
lhand -24.9076 27.7785
lfingers 7.12502
lthumb 1.60076 57.7523
rfemur 6.87572 -11.9038 18.876
rtibia 40.1465
rfoot -25.6916 -28.4941
rtoes -26.2424
lfemur -65.4783 21.2167 -5.58975
ltibia 73.6679
lfoot -10.3446 -3.09966
ltoes 1.99735
1720
root -2.68695 13.9893 25.3037 13.2012 -25.4061 -16.4389
lowerback 10.1814 3.9236 6.81528
upperback -2.48354 6.44967 3.96126
thorax -8.0882 2.90066 -0.675243
lowerneck -2.78146 0.553958 -2.71503
upperneck 5.02097 0.634341 4.4493
head 2.04506 0.373263 1.90592
rclavicle -4.36829e-014 4.45278e-014
rhumerus -40.0228 13.7042 -77.5065
rradius 43.659
rwrist 16.7436
rhand -5.84747 -42.8349
rfingers 7.12502
rthumb 19.979 -71.8278
lclavicle -4.36829e-014 4.45278e-014
lhumerus -25.3278 0.462021 80.6656
lradius 25.2772
lwrist -18.1342
lhand -24.9962 27.6021
lfingers 7.12502
lthumb 1.51522 57.5765
rfemur 6.21929 -11.8917 18.3372
rtibia 41.7233
rfoot -25.4513 -28.0414
rtoes -26.681
lfemur -65.2247 21.0183 -5.72404
ltibia 73.5102
lfoot -10.0988 -2.96175
ltoes 1.9167
1721
root -2.67889 13.9854 25.2658 12.9237 -25.5957 -16.1134
lowerback 10.4609 3.9894 6.56398
upperback -2.47126 6.52624 3.88143
thorax -8.24869 2.94199 -0.656587
lowerneck -2.47669 0.548056 -2.7409
upperneck 4.84206 0.626821 4.46174
head 1.93208 0.365188 1.90862
rclavicle -8.29926e-014 -5.96354e-014
rhumerus -40.0595 13.6941 -77.426
rradius 43.829
rwrist 16.5972
rhand -5.83746 -42.8546
rfingers 7.12502
rthumb 19.9886 -71.8465
lclavicle -8.29926e-014 -5.96354e-014
lhumerus -25.3429 0.16926 80.728
lradius 25.0758
lwrist -18.162
lhand -25.109 27.4688
lfingers 7.12502
lthumb 1.40626 57.4439
rfemur 5.35635 -11.7723 17.8626
rtibia 43.5174
rfoot -25.2357 -27.4297
rtoes -26.8369
lfemur -65.0358 20.8141 -5.87015
ltibia 73.3148
lfoot -9.816 -2.83814
ltoes 1.78402
1722
root -2.67002 13.9903 25.2255 12.6251 -25.7793 -15.6993
lowerback 10.7136 3.95621 6.15212
upperback -2.36064 6.43613 3.80331
thorax -8.3115 2.91574 -0.516626
lowerneck -2.60021 0.5945 -2.65847
upperneck 4.80166 0.692835 4.38054
head 1.93804 0.398909 1.86958
rclavicle 3.13583e-014 2.82274e-014
rhumerus -39.7563 13.8665 -77.4246
rradius 43.9386
rwrist 16.5623
rhand -5.80901 -42.8065
rfingers 7.12502
rthumb 20.0159 -71.7956
lclavicle 3.13583e-014 2.82274e-014
lhumerus -25.181 0.175136 80.6198
lradius 24.8612
lwrist -18.176
lhand -25.0074 27.438
lfingers 7.12502
lthumb 1.50443 57.4124
rfemur 4.37215 -11.7181 17.2852
rtibia 45.429
rfoot -24.6797 -26.8812
rtoes -27.2387
lfemur -64.7804 20.4541 -6.04457
ltibia 73.0739
lfoot -9.54081 -2.59445
ltoes 1.40113
1723
root -2.664 13.9921 25.1855 12.2575 -26.0076 -15.1968
lowerback 10.9177 3.98781 5.69692
upperback -2.27479 6.42037 3.7008
thorax -8.37115 2.92718 -0.387181
lowerneck -2.45884 0.630795 -2.76429
upperneck 4.64947 0.743042 4.48435
head 1.86171 0.422156 1.91999
rclavicle -8.43592e-014 -7.25564e-014
rhumerus -39.5962 13.9594 -77.3775
rradius 44.0968
rwrist 16.4265
rhand -5.67821 -42.8612
rfingers 7.12502
rthumb 20.1417 -71.8371
lclavicle -8.43592e-014 -7.25564e-014
lhumerus -25.1388 0.0120828 80.5997
lradius 24.7267
lwrist -18.2073
lhand -24.9759 27.3948
lfingers 7.12502
lthumb 1.53485 57.3691
rfemur 3.37561 -11.5139 16.6261
rtibia 47.4796
rfoot -24.3174 -26.1743
rtoes -27.7087
lfemur -64.4613 20.1174 -6.29208
ltibia 72.7958
lfoot -9.31461 -2.2787
ltoes 1.01915
